<svg width="70" height="70" viewBox="0 0 70 70" fill="none" xmlns="http://www.w3.org/2000/svg">
<path d="M69.1288 34.1771C69.1265 31.7934 67.7247 29.8624 65.7266 29.8624H65.5079C63.5481 30.0265 62.0157 31.6007 61.9271 33.5413L58.8837 49.0112L58.884 49.0897C57.983 48.5094 56.8151 48.5296 55.9353 49.1408L47.33 55.1192C46.7083 55.5511 46.3383 56.255 46.3383 57.0057V68.1601H57.7431V66.1166L65.7561 61.0782C67.9748 59.4306 69.2405 56.8182 69.1479 54.0782L69.1288 34.1771Z" fill="#0074E4"/>
<path d="M0.738344 34.1771C0.740625 31.7934 2.14242 29.8624 4.14054 29.8624H4.35923C6.319 30.0265 7.85138 31.6007 7.94005 33.5413L10.9834 49.0112L10.9831 49.0897C11.8841 48.5094 13.052 48.5296 13.9319 49.1408L22.5371 55.1192C23.1588 55.5511 23.5289 56.255 23.5289 57.0057V68.1601H12.1241V66.1166L4.11103 61.0782C1.89237 59.4306 0.626577 56.8181 0.719098 54.0781L0.738344 34.1771Z" fill="#0074E4"/>
<path d="M34.9335 54.6433C45.6413 54.6433 54.3216 46.0701 54.3216 35.4945C54.3216 24.9189 45.6413 16.3457 34.9335 16.3457C24.2257 16.3457 15.5453 24.9189 15.5453 35.4945C15.5453 46.0701 24.2257 54.6433 34.9335 54.6433Z" fill="#072A44"/>
<path d="M52.0407 19.7248C55.19 19.7248 57.7431 17.2033 57.7431 14.0928C57.7431 10.9824 55.19 8.46082 52.0407 8.46082C48.8913 8.46082 46.3383 10.9824 46.3383 14.0928C46.3383 17.2033 48.8913 19.7248 52.0407 19.7248Z" fill="#18BAEB"/>
<path d="M17.8263 19.7248C20.9757 19.7248 23.5287 17.2033 23.5287 14.0928C23.5287 10.9824 20.9757 8.46082 17.8263 8.46082C14.677 8.46082 12.1239 10.9824 12.1239 14.0928C12.1239 17.2033 14.677 19.7248 17.8263 19.7248Z" fill="#18BAEB"/>
<path d="M34.9335 11.8401C38.0828 11.8401 40.6359 9.31853 40.6359 6.20806C40.6359 3.09758 38.0828 0.57605 34.9335 0.57605C31.7841 0.57605 29.2311 3.09758 29.2311 6.20806C29.2311 9.31853 31.7841 11.8401 34.9335 11.8401Z" fill="#18BAEB"/>
<path d="M22.8443 33.2417H20.1072C20.1159 25.7801 26.2381 19.7334 33.793 19.7249V22.4282C27.7491 22.4351 22.8513 27.2724 22.8443 33.2417Z" fill="white"/>
</svg>
