<svg width="40" height="40" viewBox="0 0 40 40" fill="none" xmlns="http://www.w3.org/2000/svg">
<path fill-rule="evenodd" clip-rule="evenodd" d="M24.5833 20.8333H20.8333C19.9125 20.8333 19.1667 20.0875 19.1667 19.1667V14.1667C19.1667 13.7083 19.5417 13.3333 20 13.3333C20.4583 13.3333 20.8333 13.7083 20.8333 14.1667V19.1667H24.5833C25.0417 19.1667 25.4167 19.5417 25.4167 20C25.4167 20.4583 25.0417 20.8333 24.5833 20.8333ZM20 10C14.4792 10 10 14.4792 10 20C10 25.5208 14.4792 30 20 30C25.5208 30 30 25.5208 30 20C30 14.4792 25.5208 10 20 10Z" fill="#FF8C2D"/>
</svg>
