<svg width="40" height="40" viewBox="0 0 40 40" fill="none" xmlns="http://www.w3.org/2000/svg">
<path fill-rule="evenodd" clip-rule="evenodd" d="M20 40C31.0457 40 40 31.0457 40 20C40 8.9543 31.0457 0 20 0C8.9543 0 0 8.9543 0 20C0 31.0457 8.9543 40 20 40Z" fill="#FFF0E4"/>
<path fill-rule="evenodd" clip-rule="evenodd" d="M20 10C16.6859 10 14 12.6244 14 15.8621V20H16.8235V16.056C16.8235 14.2347 18.2453 12.7586 20 12.7586C21.7545 12.7586 23.1765 14.2346 23.1765 16.056V20H26V15.8621C26 12.6242 23.3139 10 20 10Z" fill="#E46700"/>
<path fill-rule="evenodd" clip-rule="evenodd" d="M14.336 18C13.5971 18 13 18.5955 13 19.3301V26C13 28.21 14.792 30 17.0025 30H22.9975C25.2091 30 27 28.2091 27 26V19.3301C27 18.5951 26.4018 18 25.664 18H14.336ZM19.0723 25.7264L19.1954 24.1266C18.6814 23.8427 18.3333 23.2954 18.3333 22.6667C18.3333 21.7462 19.0795 21 20 21C20.9205 21 21.6667 21.7462 21.6667 22.6667C21.6667 23.2954 21.3186 23.8427 20.8046 24.1266L20.9277 25.7264C20.9676 26.2457 20.5759 26.6667 20.0586 26.6667H19.9414C19.4215 26.6667 19.0323 26.2472 19.0723 25.7264Z" fill="#FF8C2D"/>
</svg>
