<svg width="40" height="40" viewBox="0 0 40 40" fill="none" xmlns="http://www.w3.org/2000/svg">
<path fill-rule="evenodd" clip-rule="evenodd" d="M20 40C31.0457 40 40 31.0457 40 20C40 8.9543 31.0457 0 20 0C8.9543 0 0 8.9543 0 20C0 31.0457 8.9543 40 20 40Z" fill="#FFF0E4"/>
<path fill-rule="evenodd" clip-rule="evenodd" d="M27 11.3701C27 10.0611 25.8797 9 24.4978 9H14.5022C13.1213 9 12 10.0611 12 11.3701V28.6299C12 29.9389 13.1203 31 14.5022 31H24.4978C25.8787 31 27 29.9389 27 28.6299V11.3701Z" fill="#FF8C2D"/>
<path fill-rule="evenodd" clip-rule="evenodd" d="M19.5 30C20.3284 30 21 29.3284 21 28.5C21 27.6716 20.3284 27 19.5 27C18.6716 27 18 27.6716 18 28.5C18 29.3284 18.6716 30 19.5 30Z" fill="#FFF0E4"/>
<path fill-rule="evenodd" clip-rule="evenodd" d="M26 11.3343C26 11.1485 25.8194 11 25.5967 11H13.4033C13.1838 11 13 11.1497 13 11.3343V25.6657C13 25.8515 13.1806 26 13.4033 26H25.5967C25.8162 26 26 25.8503 26 25.6657V11.3343Z" fill="#FFF0E4"/>
</svg>
