<svg width="40" height="40" viewBox="0 0 40 40" fill="none" xmlns="http://www.w3.org/2000/svg">
<path fill-rule="evenodd" clip-rule="evenodd" d="M20 40C31.0457 40 40 31.0457 40 20C40 8.9543 31.0457 0 20 0C8.9543 0 0 8.9543 0 20C0 31.0457 8.9543 40 20 40Z" fill="#FFF0E4"/>
<path fill-rule="evenodd" clip-rule="evenodd" d="M27.9625 16.8673C27.2258 12.9447 23.9433 10 20 10C16.8692 10 14.15 11.8646 12.7958 14.5934C9.535 14.9572 7 18.2607 7 21.7739C7 25.5373 9.91417 29 13.5 29H27.5833C30.5733 29 33 26.0489 33 22.9109C33 19.9093 30.7792 17.0719 27.9625 16.8673Z" fill="#FF8C2D"/>
<path fill-rule="evenodd" clip-rule="evenodd" d="M16.7075 20.6873C16.3169 20.2765 15.6836 20.2765 15.293 20.6873C14.9023 21.0982 14.9023 21.7644 15.293 22.1753L17.6853 24.6918C18.076 25.1027 18.7093 25.1027 19.0999 24.6918L24.707 18.7961C25.0977 18.3852 25.0977 17.7191 24.707 17.3082C24.3164 16.8973 23.6831 16.8973 23.2925 17.3082L18.3926 22.4599L16.7075 20.6873Z" fill="#FFF0E4"/>
</svg>
