<svg width="67" height="70" viewBox="0 0 67 70" fill="none" xmlns="http://www.w3.org/2000/svg">
<path d="M66.2872 32.6506C66.1306 14.78 51.5218 0.419021 33.6554 0.572632C15.6318 0.572632 0.429138 14.9343 0.429138 32.6507V41.7439H14.0549V58.7803H35.6303V69.0021H66.2872V32.6506Z" fill="#3E89EF"/>
<path opacity="0.6" d="M38.0604 6.70923C47.5733 16.0543 48.2232 23.0701 38.0604 32.8317C28.5474 23.4867 27.8977 16.4714 38.0604 6.70923Z" fill="white"/>
<path d="M20.8785 14.1758C34.2115 14.0554 39.6309 18.5568 39.3454 32.6472C26.0125 32.7675 20.5935 28.2666 20.8785 14.1758Z" fill="#072A44"/>
<path d="M11.784 33.7937C8.64991 33.79 6.11026 31.2497 6.10657 28.1149H8.37754C8.37754 29.9967 9.90263 31.5221 11.784 31.5221C13.6653 31.5221 15.1904 29.9967 15.1904 28.1149H17.4614C17.4577 31.2496 14.9181 33.79 11.784 33.7937Z" fill="white"/>
<path d="M56.3777 14.1758C56.4981 27.512 51.9977 32.9327 37.9108 32.6472C37.7904 19.3109 42.2903 13.8906 56.3777 14.1758Z" fill="#18BAEB"/>
</svg>
