<svg width="68" height="83" viewBox="0 0 68 83" fill="none" xmlns="http://www.w3.org/2000/svg">
<path d="M1 17.7772C1 15.6911 2.69779 14 4.80957 14H63.1904C65.2944 14 67 15.6809 67 17.7772V78.2228C67 80.3089 65.3022 82 63.1904 82H4.80957C2.7056 82 1 80.3191 1 78.2228V17.7772Z" fill="#3E89EF"/>
<rect x="10" y="25" width="49" height="6" rx="3" fill="white"/>
<path d="M50 46H56V76H50V46Z" fill="white"/>
<path d="M37 51H43V75H37V51Z" fill="white"/>
<path d="M24 61H30V76H24V61Z" fill="white"/>
<path d="M13 67H19V76H13V67Z" fill="white"/>
<path fill-rule="evenodd" clip-rule="evenodd" d="M25.8078 7.25H19.1991C16.3228 7.25 14 9.4899 14 12.253V19.7555C14 20.444 14.581 21 15.2976 21H51.7024C52.4184 21 53 20.4428 53 19.7555V12.253C53 9.48978 50.6723 7.25 47.8009 7.25H41.1922C40.5733 3.70286 37.3649 1 33.5 1C29.6351 1 26.4267 3.70286 25.8078 7.25Z" fill="#072A44"/>
</svg>
